<svg id='Automatic_Car_Wash_24' width='24' height='24' viewBox='0 0 24 24' xmlns='http://www.w3.org/2000/svg' xmlns:xlink='http://www.w3.org/1999/xlink'><rect width='24' height='24' stroke='none' fill='#000000' opacity='0'/>


<g transform="matrix(0.67 0 0 0.67 12 12)" >
<path style="stroke: none; stroke-width: 1; stroke-dasharray: none; stroke-linecap: butt; stroke-dashoffset: 0; stroke-linejoin: miter; stroke-miterlimit: 4; fill: rgb(0,0,0); fill-rule: nonzero; opacity: 1;" transform=" translate(-15, -14)" d="M 15 1 C 13.765687 1 12.659673 1.4381057 11.716797 2.0722656 C 11.483207 2.0412097 11.256379 2 11 2 C 9.2225049 2 7.6914898 2.8538721 6.5976562 4.0820312 C 4.0631164 4.2971033 2.0415319 6.3643855 2.0117188 8.9453125 C 0.85754167 9.7586146 -2.9605947e-16 10.985182 0 12.5 C 0 13.303229 0.22874244 14.043938 0.578125 14.673828 C 0.7461108584548923 14.99639438959273 1.0759643765162983 15.20234207350106 1.439532189867316 15.211657084551799 C 1.8031000032183335 15.220972095602537 2.1430670400629572 15.032185958018824 2.327350672377265 14.718645103907654 C 2.5116343046915732 14.405104249796487 2.511182924414965 14.016237192641297 2.3261719000000003 13.703125 C 2.1175544 13.327015 2 12.928771 2 12.5 C 2 11.489115 2.5964678 10.635478 3.453125 10.238281 C 3.832518808989071 10.06231451648698 4.062359061734871 9.668859275392727 4.0292969 9.2519531 C 4.0129627 9.048683 4 8.9736491 4 9 C 4 7.3315161 5.3315161 6 7 6 C 6.8165238 6 6.8240086 6.0019531 7.0214844 6.0019531 C 7.334521900354905 6.001788476602824 7.629423960803529 5.855060273301766 7.8183594 5.6054688 C 8.5544115 4.630784 9.6931365 4 11 4 C 11.235444 4 11.477026 4.0286749 11.734375 4.0761719 C 12.018163840390878 4.128703289443956 12.310810921034292 4.056075494646072 12.537109 3.8769531 C 13.228709 3.3300127 14.068746 3 15 3 C 15.931254 3 16.771291 3.3300127 17.462891 3.8769531 C 17.689189078965704 4.056075494646072 17.98183615960912 4.128703289443957 18.265625 4.0761719 C 18.522974 4.0286746 18.764556 4 19 4 C 20.351854 4 21.530085 4.669239 22.257812 5.6933594 C 22.49420554159692 6.025273566502944 22.908338408882347 6.18057323349929 23.304688 6.0859375 C 23.673835 5.9972805 24.052566 5.9734388 24.439453 6.03125 C 24.44010399984484 6.031250635638088 24.44075500015516 6.031250635638088 24.441406 6.03125 C 26.091783 6.2767294 27.212277 7.791027 26.966797 9.4414062 C 26.968997 9.4265143 26.941901 9.5071732 26.894531 9.7050781 C 26.81076788383218 10.056964520959337 26.923542706056892 10.426656671849747 27.189453 10.671875 C 27.690782 11.135571 28 11.772714 28 12.5 C 28 12.928771 27.882446 13.327015 27.673828 13.703125 C 27.488817692677944 14.016237163565501 27.488366745624987 14.405103754167223 27.672650358652433 14.71864416744376 C 27.856933971679883 15.032184580720296 28.196900604784997 15.220970483304741 28.56046803328307 15.211655671263154 C 28.92403546178114 15.202340859221566 29.2538888028175 14.996393773671407 29.421875 14.673828 C 29.771258 14.043938 30 13.303229 30 12.5 C 30 11.438844 29.55714 10.51663 28.941406 9.75 C 28.942806 9.74106 28.943913 9.74361 28.945312 9.734375 C 29.349745 7.0153842 27.45494 4.4601112 24.736328 4.0546875 L 24.734375 4.0546875 C 24.276097 3.9864007 23.843946 4.0601813 23.410156 4.1152344 C 22.313029 2.8732674 20.786421 2 19 2 C 18.743621 2 18.516793 2.0412097 18.283203 2.0722656 C 17.340327 1.4381057 16.234313 1 15 1 z M 10.507812 7 C 8.8678125 7 7.3921094 8.0003906 6.7871094 9.5253906 L 4.7949219 14.558594 C 3.6979219 15.280594 3 16.530297 3 17.904297 L 3 24.972656 L 3.0039062 24.972656 C 3.0039062 24.981656 3 24.991 3 25 C 3 26.105 3.895 27 5 27 C 6.105 27 7 26.105 7 25 C 7 24.991 6.9960938 24.981656 6.9960938 24.972656 L 7 24.972656 L 7 23.738281 C 7 23.738281 11.281 24 15 24 C 18.719 24 23 23.738281 23 23.738281 L 23 24.972656 L 23.003906 24.972656 C 23.003906 24.981656 23 24.991 23 25 C 23 26.105 23.895 27 25 27 C 26.105 27 27 26.105 27 25 C 27 24.991 26.996094 24.981656 26.996094 24.972656 L 27 24.972656 L 27 17.904297 C 27 16.530297 26.302078 15.280594 25.205078 14.558594 L 23.212891 9.5253906 C 22.607891 8.0003906 21.132188 7 19.492188 7 L 10.507812 7 z M 10.609375 9 L 19.390625 9 C 20.230625 9 20.981531 9.5244531 21.269531 10.314453 L 22.507812 13.712891 C 20.414813 13.297891 18.813 13 15 13 C 11.187 13 9.5861875 13.297891 7.4921875 13.712891 L 8.7304688 10.314453 C 9.0184688 9.5244531 9.769375 9 10.609375 9 z M 7.5 17 C 8.328 17 9 17.672 9 18.5 C 9 19.328 8.328 20 7.5 20 C 6.672 20 6 19.328 6 18.5 C 6 17.672 6.672 17 7.5 17 z M 12 17 L 15 17 L 18 17 C 18.552 17 19 17.448 19 18 C 19 18.552 18.552 19 18 19 L 15 19 L 12 19 C 11.448 19 11 18.552 11 18 C 11 17.448 11.448 17 12 17 z M 22.5 17 C 23.328 17 24 17.672 24 18.5 C 24 19.328 23.328 20 22.5 20 C 21.672 20 21 19.328 21 18.5 C 21 17.672 21.672 17 22.5 17 z" stroke-linecap="round" />
</g>
</svg>